<svg width="213" height="43" viewBox="0 0 213 43" fill="none" xmlns="http://www.w3.org/2000/svg">
<g clip-path="url(#clip0)">
<path d="M17.8529 41.696C16.9133 41.2849 8.3392 37.4677 4.69814 31.8886C2.87761 29.0698 1.11581 16.9133 0.234904 9.8661L0 8.04557L1.46817 6.87103C8.3392 1.23326 18.4402 0.117457 18.8513 0.0587304L19.2037 0L19.556 0.0587304C19.9671 0.117457 30.0094 1.23326 36.9391 6.87103L38.3486 8.04557L38.1137 9.8661C37.2328 16.8546 35.471 29.0698 33.6505 31.8886C30.0681 37.4677 21.494 41.2849 20.4956 41.696L19.2037 42.2833L17.8529 41.696ZM2.52526 9.63119C2.93635 12.685 4.93306 28.0127 6.63614 30.7141C9.92484 35.7646 18.3815 39.5231 18.7338 39.6406L19.1449 39.8168L19.556 39.6406C19.9084 39.4644 28.365 35.7646 31.6537 30.7141C33.3568 28.0714 35.4123 12.685 35.7646 9.63119L35.8233 9.04392L35.3535 8.69157C28.9523 3.52361 19.556 2.46653 19.2037 2.4078H19.0862H18.9688C18.5577 2.46653 9.16139 3.5236 2.8189 8.75029L2.34907 9.10265L2.52526 9.63119Z" fill="#1F2F6E"/>
<path fill-rule="evenodd" clip-rule="evenodd" d="M24.25 28.25H17.5L13 23.75V17.75H10L18.625 11L27.25 17.75H24.25V28.25Z" fill="#1F2F6E" stroke="#1F2F6E" stroke-width="1.5" stroke-linecap="round" stroke-linejoin="round"/>
<path opacity="0.5" fill-rule="evenodd" clip-rule="evenodd" d="M12.25 23.75L16.2028 23.9971C17.325 24.0672 18.1688 25.0483 18.0704 26.1683L17.8214 29" fill="#F9FAFB"/>
</g>
<path d="M48.888 7.912V8.248H51.096V24.664H48.888V25H64.224V19.744H63.912C63.752 20.432 63.52 21.08 63.216 21.688C62.912 22.28 62.528 22.8 62.064 23.248C61.616 23.696 61.096 24.048 60.504 24.304C59.912 24.544 59.248 24.664 58.512 24.664H54.576V16H56.184C56.744 16 57.208 16.096 57.576 16.288C57.96 16.48 58.28 16.744 58.536 17.08C58.792 17.4 58.992 17.776 59.136 18.208C59.296 18.64 59.432 19.088 59.544 19.552H59.856V12.088H59.544C59.432 12.632 59.288 13.128 59.112 13.576C58.936 14.008 58.712 14.384 58.44 14.704C58.168 15.008 57.824 15.248 57.408 15.424C57.008 15.584 56.512 15.664 55.92 15.664H54.576V8.248H58.392C59.176 8.248 59.84 8.4 60.384 8.704C60.928 8.992 61.368 9.336 61.704 9.736C62.056 10.136 62.328 10.552 62.52 10.984C62.712 11.4 62.848 11.744 62.928 12.016H63.24V7.912H48.888ZM66.1843 7.696V8.032H67.7923V24.664H66.1843V25H72.3283V24.664H70.7203V7.696H66.1843ZM80.8106 18.64H76.9706C76.9866 18.224 77.0106 17.792 77.0426 17.344C77.0906 16.88 77.1866 16.456 77.3306 16.072C77.4746 15.672 77.6906 15.344 77.9786 15.088C78.2826 14.832 78.7066 14.704 79.2506 14.704C79.6346 14.704 79.9306 14.792 80.1386 14.968C80.3626 15.144 80.5226 15.36 80.6186 15.616C80.7146 15.872 80.7706 16.128 80.7866 16.384C80.8026 16.64 80.8106 16.856 80.8106 17.032V18.64ZM76.9706 18.976H84.0506C84.0506 18.16 83.9066 17.464 83.6186 16.888C83.3306 16.296 82.9626 15.816 82.5146 15.448C82.0666 15.08 81.5626 14.808 81.0026 14.632C80.4426 14.456 79.8826 14.368 79.3226 14.368C78.5386 14.368 77.8026 14.528 77.1146 14.848C76.4426 15.152 75.8506 15.56 75.3386 16.072C74.8426 16.568 74.4506 17.144 74.1626 17.8C73.8746 18.456 73.7306 19.128 73.7306 19.816C73.7306 20.68 73.8826 21.456 74.1866 22.144C74.4906 22.816 74.9066 23.392 75.4346 23.872C75.9786 24.336 76.6106 24.696 77.3306 24.952C78.0506 25.192 78.8266 25.312 79.6586 25.312C80.3626 25.312 80.9626 25.208 81.4586 25C81.9546 24.808 82.3706 24.568 82.7066 24.28C83.0426 23.976 83.3066 23.656 83.4986 23.32C83.6906 22.968 83.8266 22.64 83.9066 22.336L83.5706 22.216C83.5546 22.36 83.4746 22.584 83.3306 22.888C83.2026 23.192 82.9946 23.504 82.7066 23.824C82.4346 24.128 82.0746 24.4 81.6266 24.64C81.1946 24.88 80.6586 25 80.0186 25C79.2986 25 78.7386 24.848 78.3386 24.544C77.9386 24.24 77.6346 23.856 77.4266 23.392C77.2186 22.912 77.0906 22.384 77.0426 21.808C76.9946 21.216 76.9706 20.632 76.9706 20.056V18.976ZM84.5786 14.704V15.04H85.8746L90.6506 25.648H90.8426L95.0906 15.04H96.1946V14.704H92.8346V15.04H94.6826L92.0666 21.688L89.1146 15.04H90.8426V14.704H84.5786ZM103.32 19.048V22.216C103.32 22.68 103.272 23.08 103.176 23.416C103.08 23.736 102.952 24 102.792 24.208C102.632 24.4 102.448 24.544 102.24 24.64C102.048 24.736 101.848 24.784 101.64 24.784C101.272 24.784 100.984 24.704 100.776 24.544C100.568 24.368 100.408 24.16 100.296 23.92C100.2 23.68 100.136 23.432 100.104 23.176C100.088 22.92 100.08 22.696 100.08 22.504C100.08 22.024 100.152 21.632 100.296 21.328C100.456 21.024 100.656 20.768 100.896 20.56C101.136 20.352 101.408 20.184 101.712 20.056C102.016 19.912 102.32 19.768 102.624 19.624C102.848 19.512 103 19.416 103.08 19.336C103.176 19.24 103.24 19.144 103.272 19.048H103.32ZM108.168 24.616L107.952 24.4C107.824 24.544 107.688 24.656 107.544 24.736C107.416 24.816 107.248 24.856 107.04 24.856C106.688 24.856 106.464 24.744 106.368 24.52C106.288 24.28 106.248 24.008 106.248 23.704V17.752C106.248 17.08 106.128 16.528 105.888 16.096C105.664 15.648 105.352 15.296 104.952 15.04C104.568 14.784 104.104 14.608 103.56 14.512C103.032 14.416 102.464 14.368 101.856 14.368C101.328 14.368 100.816 14.424 100.32 14.536C99.84 14.648 99.408 14.816 99.024 15.04C98.64 15.248 98.328 15.52 98.088 15.856C97.864 16.176 97.752 16.544 97.752 16.96C97.752 17.232 97.792 17.448 97.872 17.608C97.968 17.768 98.08 17.896 98.208 17.992C98.336 18.072 98.48 18.128 98.64 18.16C98.816 18.176 98.984 18.184 99.144 18.184C99.256 18.184 99.392 18.184 99.552 18.184C99.728 18.168 99.888 18.128 100.032 18.064C100.192 18 100.328 17.904 100.44 17.776C100.552 17.632 100.608 17.44 100.608 17.2C100.608 17.152 100.6 17.064 100.584 16.936C100.568 16.808 100.552 16.672 100.536 16.528C100.52 16.384 100.504 16.256 100.488 16.144C100.472 16.016 100.464 15.928 100.464 15.88C100.464 15.432 100.6 15.128 100.872 14.968C101.144 14.792 101.464 14.704 101.832 14.704C102.408 14.704 102.8 14.88 103.008 15.232C103.216 15.584 103.32 15.976 103.32 16.408V17.872C103.32 18.176 103.272 18.424 103.176 18.616C103.096 18.808 102.944 18.984 102.72 19.144C102.496 19.288 102.176 19.432 101.76 19.576C101.36 19.704 100.832 19.864 100.176 20.056C99.776 20.184 99.384 20.32 99 20.464C98.632 20.592 98.296 20.768 97.992 20.992C97.704 21.2 97.464 21.464 97.272 21.784C97.096 22.088 97.008 22.472 97.008 22.936C97.008 23.384 97.112 23.768 97.32 24.088C97.528 24.392 97.8 24.632 98.136 24.808C98.472 24.984 98.84 25.112 99.24 25.192C99.64 25.272 100.032 25.312 100.416 25.312C101.264 25.312 101.912 25.2 102.36 24.976C102.808 24.752 103.16 24.32 103.416 23.68H103.464C103.56 24.192 103.8 24.592 104.184 24.88C104.584 25.168 105.192 25.312 106.008 25.312C106.376 25.312 106.768 25.28 107.184 25.216C107.616 25.152 107.944 24.952 108.168 24.616ZM110.869 11.608V14.704H109.261V15.04H110.869V22.432C110.869 22.72 110.885 23.032 110.917 23.368C110.949 23.704 111.069 24.016 111.277 24.304C111.501 24.592 111.837 24.832 112.285 25.024C112.749 25.216 113.397 25.312 114.229 25.312C114.533 25.312 114.853 25.28 115.189 25.216C115.525 25.168 115.837 25.056 116.125 24.88C116.429 24.704 116.693 24.456 116.917 24.136C117.157 23.8 117.325 23.36 117.421 22.816L117.061 22.744C116.997 22.984 116.909 23.232 116.797 23.488C116.701 23.744 116.573 23.976 116.413 24.184C116.253 24.376 116.061 24.536 115.837 24.664C115.629 24.792 115.373 24.856 115.069 24.856C114.797 24.856 114.573 24.808 114.397 24.712C114.237 24.616 114.109 24.488 114.013 24.328C113.933 24.152 113.877 23.96 113.845 23.752C113.813 23.544 113.797 23.32 113.797 23.08V15.04H116.605V14.704H113.797V11.608C113.557 11.704 113.309 11.784 113.053 11.848C112.813 11.912 112.573 11.944 112.333 11.944C112.093 11.944 111.845 11.912 111.589 11.848C111.349 11.784 111.109 11.704 110.869 11.608ZM125.248 18.64H121.408C121.424 18.224 121.448 17.792 121.48 17.344C121.528 16.88 121.624 16.456 121.768 16.072C121.912 15.672 122.128 15.344 122.416 15.088C122.72 14.832 123.144 14.704 123.688 14.704C124.072 14.704 124.368 14.792 124.576 14.968C124.8 15.144 124.96 15.36 125.056 15.616C125.152 15.872 125.208 16.128 125.224 16.384C125.24 16.64 125.248 16.856 125.248 17.032V18.64ZM121.408 18.976H128.488C128.488 18.16 128.344 17.464 128.056 16.888C127.768 16.296 127.4 15.816 126.952 15.448C126.504 15.08 126 14.808 125.44 14.632C124.88 14.456 124.32 14.368 123.76 14.368C122.976 14.368 122.24 14.528 121.552 14.848C120.88 15.152 120.288 15.56 119.776 16.072C119.28 16.568 118.888 17.144 118.6 17.8C118.312 18.456 118.168 19.128 118.168 19.816C118.168 20.68 118.32 21.456 118.624 22.144C118.928 22.816 119.344 23.392 119.872 23.872C120.416 24.336 121.048 24.696 121.768 24.952C122.488 25.192 123.264 25.312 124.096 25.312C124.8 25.312 125.4 25.208 125.896 25C126.392 24.808 126.808 24.568 127.144 24.28C127.48 23.976 127.744 23.656 127.936 23.32C128.128 22.968 128.264 22.64 128.344 22.336L128.008 22.216C127.992 22.36 127.912 22.584 127.768 22.888C127.64 23.192 127.432 23.504 127.144 23.824C126.872 24.128 126.512 24.4 126.064 24.64C125.632 24.88 125.096 25 124.456 25C123.736 25 123.176 24.848 122.776 24.544C122.376 24.24 122.072 23.856 121.864 23.392C121.656 22.912 121.528 22.384 121.48 21.808C121.432 21.216 121.408 20.632 121.408 20.056V18.976Z" fill="#1F2F6E"/>
<path d="M53.94 30.7V31.58H52.04V37H50.97V31.58H49.1V30.7H53.94ZM54.9893 37V30.7H56.0593V33.3H58.8493V30.7H59.9193V37H58.8493V34.18H56.0593V37H54.9893ZM61.6346 30.7H65.5346V31.56H62.7046V33.3H65.2746V34.15H62.7046V36.14H65.5646V37H61.6346V30.7ZM69.3491 37V30.7H70.4191V33.3H73.2091V30.7H74.2791V37H73.2091V34.18H70.4191V37H69.3491ZM78.7144 30.6C79.1477 30.6 79.5477 30.67 79.9144 30.81C80.281 30.95 80.5977 31.1567 80.8644 31.43C81.131 31.7033 81.3377 32.0433 81.4844 32.45C81.6377 32.8567 81.7144 33.3233 81.7144 33.85C81.7144 34.37 81.6377 34.8333 81.4844 35.24C81.331 35.64 81.1177 35.98 80.8444 36.26C80.571 36.5333 80.2477 36.7433 79.8744 36.89C79.5077 37.03 79.1077 37.1 78.6744 37.1C78.241 37.1 77.841 37.03 77.4744 36.89C77.1077 36.75 76.791 36.5433 76.5244 36.27C76.2577 35.9967 76.0477 35.66 75.8944 35.26C75.7477 34.8533 75.6744 34.3833 75.6744 33.85C75.6744 33.33 75.751 32.87 75.9044 32.47C76.0577 32.0633 76.271 31.7233 76.5444 31.45C76.8177 31.17 77.1377 30.96 77.5044 30.82C77.8777 30.6733 78.281 30.6 78.7144 30.6ZM76.8244 33.85C76.8244 34.2567 76.8744 34.6133 76.9744 34.92C77.0744 35.22 77.2077 35.47 77.3744 35.67C77.5477 35.87 77.7477 36.02 77.9744 36.12C78.2077 36.2133 78.4544 36.26 78.7144 36.26C78.9744 36.26 79.2177 36.2133 79.4444 36.12C79.671 36.02 79.8644 35.87 80.0244 35.67C80.191 35.47 80.321 35.22 80.4144 34.92C80.5144 34.6133 80.5644 34.2567 80.5644 33.85C80.5644 33.43 80.5144 33.07 80.4144 32.77C80.3144 32.4633 80.1777 32.2133 80.0044 32.02C79.8377 31.82 79.6377 31.6733 79.4044 31.58C79.1777 31.4867 78.9344 31.44 78.6744 31.44C78.4144 31.44 78.171 31.49 77.9444 31.59C77.7177 31.6833 77.521 31.83 77.3544 32.03C77.1944 32.23 77.0644 32.4833 76.9644 32.79C76.871 33.09 76.8244 33.4433 76.8244 33.85ZM83.1182 30.7H84.0682L86.7082 34.47C86.8282 34.6433 86.9415 34.8167 87.0482 34.99C87.1549 35.1633 87.2449 35.32 87.3182 35.46H87.3382C87.3049 34.9667 87.2882 34.4767 87.2882 33.99C87.2882 33.4967 87.2882 33 87.2882 32.5V30.7H88.3182V37H87.3682L84.7982 33.35C84.6715 33.17 84.5482 32.9767 84.4282 32.77C84.3082 32.5567 84.2049 32.3667 84.1182 32.2H84.0982C84.1315 32.72 84.1482 33.2367 84.1482 33.75C84.1482 34.2567 84.1482 34.7667 84.1482 35.28V37H83.1182V30.7ZM92.757 30.6C93.1903 30.6 93.5903 30.67 93.957 30.81C94.3236 30.95 94.6403 31.1567 94.907 31.43C95.1736 31.7033 95.3803 32.0433 95.527 32.45C95.6803 32.8567 95.757 33.3233 95.757 33.85C95.757 34.37 95.6803 34.8333 95.527 35.24C95.3736 35.64 95.1603 35.98 94.887 36.26C94.6136 36.5333 94.2903 36.7433 93.917 36.89C93.5503 37.03 93.1503 37.1 92.717 37.1C92.2836 37.1 91.8836 37.03 91.517 36.89C91.1503 36.75 90.8336 36.5433 90.567 36.27C90.3003 35.9967 90.0903 35.66 89.937 35.26C89.7903 34.8533 89.717 34.3833 89.717 33.85C89.717 33.33 89.7936 32.87 89.947 32.47C90.1003 32.0633 90.3136 31.7233 90.587 31.45C90.8603 31.17 91.1803 30.96 91.547 30.82C91.9203 30.6733 92.3236 30.6 92.757 30.6ZM90.867 33.85C90.867 34.2567 90.917 34.6133 91.017 34.92C91.117 35.22 91.2503 35.47 91.417 35.67C91.5903 35.87 91.7903 36.02 92.017 36.12C92.2503 36.2133 92.497 36.26 92.757 36.26C93.017 36.26 93.2603 36.2133 93.487 36.12C93.7136 36.02 93.907 35.87 94.067 35.67C94.2336 35.47 94.3636 35.22 94.457 34.92C94.557 34.6133 94.607 34.2567 94.607 33.85C94.607 33.43 94.557 33.07 94.457 32.77C94.357 32.4633 94.2203 32.2133 94.047 32.02C93.8803 31.82 93.6803 31.6733 93.447 31.58C93.2203 31.4867 92.977 31.44 92.717 31.44C92.457 31.44 92.2136 31.49 91.987 31.59C91.7603 31.6833 91.5636 31.83 91.397 32.03C91.237 32.23 91.107 32.4833 91.007 32.79C90.9136 33.09 90.867 33.4433 90.867 33.85ZM97.1608 30.7H99.3308C99.6641 30.7 99.9574 30.75 100.211 30.85C100.471 30.9433 100.687 31.0767 100.861 31.25C101.034 31.4167 101.164 31.6167 101.251 31.85C101.337 32.0833 101.381 32.3367 101.381 32.61C101.381 32.8567 101.341 33.0767 101.261 33.27C101.187 33.4633 101.091 33.6333 100.971 33.78C100.851 33.92 100.714 34.0433 100.561 34.15C100.414 34.25 100.264 34.33 100.111 34.39L101.731 37H100.521L99.1308 34.58H98.2008V37H97.1608V30.7ZM98.2008 33.73H98.8808C99.0808 33.73 99.2641 33.71 99.4308 33.67C99.5974 33.63 99.7441 33.5667 99.8708 33.48C99.9974 33.3933 100.094 33.2833 100.161 33.15C100.234 33.01 100.271 32.8433 100.271 32.65C100.271 32.2767 100.164 32 99.9508 31.82C99.7374 31.6333 99.4308 31.54 99.0308 31.54H98.2008V33.73ZM107.155 30.6C107.842 30.6 108.442 30.7267 108.955 30.98L108.705 31.83C108.425 31.6967 108.165 31.6 107.925 31.54C107.692 31.4733 107.455 31.44 107.215 31.44C106.855 31.44 106.572 31.5167 106.365 31.67C106.158 31.8233 106.055 32.0367 106.055 32.31C106.055 32.55 106.135 32.74 106.295 32.88C106.455 33.02 106.715 33.1467 107.075 33.26L107.695 33.46C108.242 33.6333 108.642 33.8767 108.895 34.19C109.148 34.4967 109.275 34.8533 109.275 35.26C109.275 35.5333 109.222 35.7833 109.115 36.01C109.008 36.2367 108.855 36.43 108.655 36.59C108.462 36.75 108.225 36.8767 107.945 36.97C107.665 37.0567 107.355 37.1 107.015 37.1C106.675 37.1 106.335 37.0667 105.995 37C105.662 36.94 105.335 36.8333 105.015 36.68L105.265 35.84C105.552 35.98 105.832 36.0867 106.105 36.16C106.378 36.2267 106.665 36.26 106.965 36.26C107.325 36.26 107.618 36.1833 107.845 36.03C108.072 35.8767 108.185 35.65 108.185 35.35C108.185 35.1367 108.105 34.9467 107.945 34.78C107.792 34.6133 107.488 34.4567 107.035 34.31L106.445 34.12C105.985 33.9667 105.622 33.7633 105.355 33.51C105.095 33.25 104.965 32.89 104.965 32.43C104.965 31.8767 105.152 31.4333 105.525 31.1C105.898 30.7667 106.442 30.6 107.155 30.6ZM113.362 30.6C113.795 30.6 114.195 30.67 114.562 30.81C114.928 30.95 115.245 31.1567 115.512 31.43C115.778 31.7033 115.985 32.0433 116.132 32.45C116.285 32.8567 116.362 33.3233 116.362 33.85C116.362 34.37 116.285 34.8333 116.132 35.24C115.978 35.64 115.765 35.98 115.492 36.26C115.218 36.5333 114.895 36.7433 114.522 36.89C114.155 37.03 113.755 37.1 113.322 37.1C112.888 37.1 112.488 37.03 112.122 36.89C111.755 36.75 111.438 36.5433 111.172 36.27C110.905 35.9967 110.695 35.66 110.542 35.26C110.395 34.8533 110.322 34.3833 110.322 33.85C110.322 33.33 110.398 32.87 110.552 32.47C110.705 32.0633 110.918 31.7233 111.192 31.45C111.465 31.17 111.785 30.96 112.152 30.82C112.525 30.6733 112.928 30.6 113.362 30.6ZM111.472 33.85C111.472 34.2567 111.522 34.6133 111.622 34.92C111.722 35.22 111.855 35.47 112.022 35.67C112.195 35.87 112.395 36.02 112.622 36.12C112.855 36.2133 113.102 36.26 113.362 36.26C113.622 36.26 113.865 36.2133 114.092 36.12C114.318 36.02 114.512 35.87 114.672 35.67C114.838 35.47 114.968 35.22 115.062 34.92C115.162 34.6133 115.212 34.2567 115.212 33.85C115.212 33.43 115.162 33.07 115.062 32.77C114.962 32.4633 114.825 32.2133 114.652 32.02C114.485 31.82 114.285 31.6733 114.052 31.58C113.825 31.4867 113.582 31.44 113.322 31.44C113.062 31.44 112.818 31.49 112.592 31.59C112.365 31.6833 112.168 31.83 112.002 32.03C111.842 32.23 111.712 32.4833 111.612 32.79C111.518 33.09 111.472 33.4433 111.472 33.85ZM120.635 36.24C120.962 36.24 121.232 36.2133 121.445 36.16C121.665 36.1 121.872 36.0233 122.065 35.93L122.295 36.76C122.082 36.86 121.835 36.94 121.555 37C121.275 37.0667 120.932 37.1 120.525 37.1C120.092 37.1 119.685 37.03 119.305 36.89C118.932 36.7433 118.605 36.5333 118.325 36.26C118.052 35.98 117.835 35.64 117.675 35.24C117.515 34.8333 117.435 34.37 117.435 33.85C117.435 33.3433 117.512 32.89 117.665 32.49C117.819 32.0833 118.032 31.74 118.305 31.46C118.585 31.18 118.915 30.9667 119.295 30.82C119.682 30.6733 120.105 30.6 120.565 30.6C120.985 30.6 121.329 30.6367 121.595 30.71C121.869 30.7767 122.109 30.8667 122.315 30.98L122.065 31.79C121.839 31.69 121.622 31.61 121.415 31.55C121.215 31.49 120.975 31.46 120.695 31.46C120.409 31.46 120.135 31.5033 119.875 31.59C119.622 31.6767 119.399 31.8167 119.205 32.01C119.019 32.2033 118.869 32.4533 118.755 32.76C118.642 33.06 118.585 33.4233 118.585 33.85C118.585 34.2767 118.639 34.6433 118.745 34.95C118.859 35.25 119.005 35.4967 119.185 35.69C119.372 35.8767 119.589 36.0167 119.835 36.11C120.089 36.1967 120.355 36.24 120.635 36.24ZM124.67 30.7V37H123.6V30.7H124.67ZM126.339 30.7H130.239V31.56H127.409V33.3H129.979V34.15H127.409V36.14H130.269V37H126.339V30.7ZM135.778 30.7V31.58H133.878V37H132.808V31.58H130.938V30.7H135.778ZM137.601 30.7L139.101 33.4L140.601 30.7H141.751L139.591 34.37V37H138.521V34.37L136.421 30.7H137.601ZM145.556 30.7H146.936L148.046 34.1C148.14 34.3867 148.22 34.6467 148.286 34.88C148.36 35.1067 148.433 35.3633 148.506 35.65H148.536C148.61 35.41 148.683 35.1533 148.756 34.88C148.836 34.6067 148.913 34.3467 148.986 34.1L150.056 30.7H151.436L151.956 37H150.916C150.863 36.3333 150.81 35.6633 150.756 34.99C150.71 34.31 150.673 33.63 150.646 32.95L150.606 31.8H150.586C150.473 32.2133 150.353 32.6333 150.226 33.06C150.106 33.4867 149.98 33.8967 149.846 34.29L148.956 37H148.046L147.146 34.28C147.053 33.9933 146.97 33.7333 146.896 33.5C146.83 33.2667 146.766 33.0533 146.706 32.86C146.653 32.66 146.603 32.4733 146.556 32.3C146.51 32.1267 146.466 31.96 146.426 31.8H146.396C146.376 32.3667 146.346 32.9433 146.306 33.53C146.266 34.1167 146.23 34.68 146.196 35.22L146.076 37H145.056L145.556 30.7ZM154.83 34.53H156.74L156.37 33.51C156.257 33.23 156.157 32.97 156.07 32.73C155.99 32.4833 155.903 32.2033 155.81 31.89H155.79C155.69 32.1833 155.597 32.4567 155.51 32.71C155.423 32.9567 155.323 33.2267 155.21 33.52L154.83 34.53ZM155.31 30.7H156.33L158.78 37H157.66L157.03 35.35H154.56L153.94 37H152.83L155.31 30.7ZM162.459 30.6C163.193 30.6 163.806 30.7233 164.299 30.97L164.059 31.76C163.819 31.6467 163.576 31.5633 163.329 31.51C163.089 31.4567 162.839 31.43 162.579 31.43C162.293 31.43 162.019 31.4733 161.759 31.56C161.506 31.6467 161.279 31.7867 161.079 31.98C160.886 32.1733 160.729 32.4233 160.609 32.73C160.496 33.0367 160.439 33.4133 160.439 33.86C160.439 34.64 160.616 35.2367 160.969 35.65C161.323 36.0567 161.823 36.26 162.469 36.26C162.696 36.26 162.889 36.25 163.049 36.23C163.216 36.2033 163.373 36.1633 163.519 36.11V34.45H162.379V33.63H164.529V36.72C164.263 36.8267 163.963 36.9167 163.629 36.99C163.296 37.0633 162.906 37.1 162.459 37.1C162.019 37.1 161.606 37.03 161.219 36.89C160.833 36.75 160.496 36.5433 160.209 36.27C159.923 35.9967 159.696 35.66 159.529 35.26C159.369 34.8533 159.289 34.3867 159.289 33.86C159.289 33.3333 159.369 32.8667 159.529 32.46C159.689 32.0533 159.909 31.7133 160.189 31.44C160.476 31.16 160.813 30.95 161.199 30.81C161.586 30.67 162.006 30.6 162.459 30.6ZM167.31 34.53H169.22L168.85 33.51C168.737 33.23 168.637 32.97 168.55 32.73C168.47 32.4833 168.383 32.2033 168.29 31.89H168.27C168.17 32.1833 168.077 32.4567 167.99 32.71C167.903 32.9567 167.803 33.2267 167.69 33.52L167.31 34.53ZM167.79 30.7H168.81L171.26 37H170.14L169.51 35.35H167.04L166.42 37H165.31L167.79 30.7ZM176.356 30.7V31.33L173.036 36.16H176.416V37H171.746V36.28L175.006 31.54H171.876V30.7H176.356ZM178.701 30.7V37H177.631V30.7H178.701ZM180.419 30.7H181.369L184.009 34.47C184.129 34.6433 184.243 34.8167 184.349 34.99C184.456 35.1633 184.546 35.32 184.619 35.46H184.639C184.606 34.9667 184.589 34.4767 184.589 33.99C184.589 33.4967 184.589 33 184.589 32.5V30.7H185.619V37H184.669L182.099 33.35C181.973 33.17 181.849 32.9767 181.729 32.77C181.609 32.5567 181.506 32.3667 181.419 32.2H181.399C181.433 32.72 181.449 33.2367 181.449 33.75C181.449 34.2567 181.449 34.7667 181.449 35.28V37H180.419V30.7ZM187.338 30.7H191.238V31.56H188.408V33.3H190.978V34.15H188.408V36.14H191.268V37H187.338V30.7Z" fill="#1F2F6E"/>
<defs>
<clipPath id="clip0">
<rect width="38.3486" height="42.2833" fill="white"/>
</clipPath>
</defs>
</svg>
